<svg width="1512" height="2354" viewBox="0 0 1512 2354" fill="none" xmlns="http://www.w3.org/2000/svg">
<g clip-path="url(#clip0_1758_2641)">
<path d="M1512 0H0V2352H1512V0Z" fill="#FF9AE4"/>
<path d="M1511.43 108.38V282.014C1508.64 281.903 1505.84 281.773 1503.05 281.682C1483.71 281.079 1464.15 282.144 1445.07 279.552C1403.78 273.946 1362.69 267.567 1322.12 256.817C1268.23 242.531 1214.12 229.29 1161.63 210.252C1158.03 208.956 1154.47 207.559 1149.31 205.62C1160.98 205.62 1170.89 204.475 1180.46 205.831C1219.64 211.387 1258.76 217.656 1297.87 223.784C1307.54 225.291 1317.06 228.195 1326.76 228.807C1361.41 231.148 1396.16 232.043 1430.74 235.016C1451.25 236.784 1471.21 235.016 1491.25 231.651C1494.54 231.108 1497.69 229.641 1500.9 228.637C1484.83 224.297 1469.33 221.494 1453.85 218.59C1404.39 209.358 1355.12 199.18 1306.95 184.432C1281.78 176.706 1256.8 168.358 1230.48 165.223C1200.4 161.637 1170.38 157.357 1140.23 154.554C1116.12 152.314 1091.89 150.766 1067.71 150.827C1030.15 150.917 992.659 151.831 955.517 144.728C950.836 143.844 946.023 143.633 941.272 143.101L940.85 144.959C957.286 157.196 972.998 170.518 990.299 181.428C1029.14 205.952 1068.88 229.039 1107.96 253.18C1129.44 266.411 1153.06 275.776 1177.77 280.848C1206.7 286.923 1235.59 293.236 1264.43 299.786C1311.91 310.476 1360.12 317.639 1408.65 321.215C1443.37 323.827 1477.62 328.519 1511.45 336.576V454.201C1466.66 444.275 1421.94 434.108 1377.07 424.483C1291.79 406.229 1210.87 377.677 1137.67 328.81C1103.2 305.794 1066.49 286.143 1031.48 263.89C974.616 227.723 921.339 186.12 862.487 152.946C835.884 137.947 810.165 121.33 783.24 106.923C728.617 77.6981 671.905 53.5463 610.782 41.179C589.333 36.849 568.054 30.9417 546.384 28.7014C516.626 25.6874 486.607 28.219 457.211 33.5135C433.461 37.8034 410.163 44.6551 386.745 50.5926C330.337 65.0194 273.953 79.5432 217.592 94.1643C173.116 105.899 127.726 109.917 82.0445 112.288C54.3664 113.745 26.7888 116.186 -0.899401 118.175V-10.6408C26.417 -13.5643 53.7435 -16.4175 81.0499 -19.4516C107.171 -22.355 133.292 -27.8303 159.413 -27.9408C207.405 -28.1418 255.407 -24.7561 303.429 -23.8017C328.797 -23.2993 354.214 -24.6456 379.602 -25.4191C393.325 -25.8411 407.119 -28.1619 420.722 -27.2577C448.129 -25.4293 475.476 -22.3549 502.772 -19.12C553.547 -13.0921 603.237 -1.5788 652.465 11.7429C654.414 12.2653 656.403 12.6571 658.372 13.1092C656.941 11.0576 654.898 9.51056 652.535 8.68869C615.202 -5.81848 577.95 -20.5467 540.466 -34.6721C511.934 -45.4319 483.673 -57.568 454.287 -65.2837C400.267 -79.4694 345.424 -90.5205 291.072 -103.46C257.577 -111.498 224.554 -121.544 190.949 -129.029C161.462 -135.619 131.674 -141.597 101.645 -144.842C67.6278 -148.519 33.2487 -148.86 -0.969727 -150.619V-262.708C0.406644 -262.476 1.77297 -262.195 3.14934 -262.034C24.89 -259.553 46.9219 -258.528 68.331 -254.329C119.106 -244.373 168.876 -230.358 218.024 -214.022C242.768 -205.794 268.397 -199.846 292.428 -189.91C341.988 -169.506 390.723 -147.132 439.831 -125.613C474.632 -110.453 509.794 -96.036 544.153 -79.9616C575.298 -65.3239 605.698 -48.8174 636.411 -33.1951C673.583 -14.2374 710.875 4.41895 747.816 23.7886C780.447 40.8676 812.526 59.2125 849.286 66.3053C877.858 71.8309 906.471 77.2058 935.163 82.0482C962.48 86.6495 989.796 92.5167 1017.33 94.1844C1061.75 96.8568 1106.35 96.9171 1150.87 97.2788C1165.94 97.4094 1181.11 95.4905 1196.16 93.873C1225.58 90.7083 1254.88 86.2276 1284.35 83.8265C1334.58 79.8079 1384.44 85.3636 1433.93 93.9936C1459.8 98.5647 1485.6 103.588 1511.43 108.38Z" fill="#E67FCA"/>
<path d="M-0.899377 415.039V338.023C22.2076 332.547 45.1136 325.967 68.4215 321.868C98.9126 316.563 129.755 313.248 160.457 309.149C192.606 304.859 224.755 301.825 257.256 301.684C301.993 301.484 346.669 298.038 391.457 297.475C428.267 297.023 465.248 296.932 501.868 300.007C539.16 303.141 576.091 310.475 613.223 315.729C685.377 325.937 755.703 344.442 825.737 363.822C852.591 371.256 878.421 382.408 904.642 392.073C932.391 402.31 960.31 412.166 987.676 423.368C1009.87 432.41 1030.77 444.887 1053.3 452.854C1102.27 470.174 1151.88 485.676 1201.29 501.751C1286.86 529.599 1373.28 554.444 1461.1 574.216C1477.58 577.933 1494.61 579.239 1511.39 581.68V700.701C1488.95 698.461 1465.9 698.692 1444.19 693.438C1401.44 683.11 1359.05 670.934 1317.24 657.27C1276.74 644.049 1237.15 628.025 1197.19 613.196C1140.2 591.88 1084.35 567.649 1029.85 540.6C972.175 512.179 915.482 481.617 857.052 454.884C797.275 427.527 735.379 405.656 670.187 393.901C630.162 386.698 590.217 379.716 549.478 379.836C506.228 379.907 463.39 384.347 421.486 395.81C404.879 400.351 387.719 403.335 371.675 409.333C354.506 415.752 338.24 424.664 321.784 432.892C290.73 448.424 259.215 463.182 229.005 480.241C196.334 498.686 165.069 519.603 132.94 539.043C91.2873 564.26 45.857 580.304 -0.909424 592.923V542.509C29.5717 531.8 58.4252 517.805 84.8274 498.927C101.716 486.872 118.513 474.665 135.391 462.579C181.204 429.747 231.104 403.787 280.322 376.692C300.204 365.856 321.51 357.868 343.615 352.962C350.216 351.465 356.897 350.279 363.537 348.943C354.496 347.939 345.715 349.064 336.934 348.772C294.297 347.336 252.333 352.319 210.469 359.984C138.606 373.135 67.4369 388.607 -0.899377 415.039Z" fill="#E67FCA"/>
<path d="M-0.899364 199.401C14.4115 198.537 29.8027 198.397 45.0232 196.699C94.383 191.422 143.25 182.261 191.17 169.302C237.926 156.553 284.23 142.176 330.967 129.337C372.157 118.075 413.87 109.485 456.658 107.235C474.34 106.29 492.032 104.06 509.674 104.452C549.659 105.326 588.75 113.283 627.71 121.762C680.602 133.283 731.565 152.338 779.041 178.344C821.236 201.34 862.427 225.944 902.854 251.824C953.157 283.973 1004.2 315.007 1057.57 341.921C1101.5 364.023 1144.74 387.864 1189.83 407.374C1256.14 436.067 1323.79 461.705 1393.07 482.723C1420.51 491.031 1447.68 500.214 1475.18 508.291C1486.98 511.757 1499.29 513.405 1511.35 515.876V531.277C1481.21 525.571 1450.97 520.035 1420.85 514.078C1406.48 511.235 1392.1 508.181 1378.01 504.202C1337.48 492.719 1295.89 484.551 1257.05 467.583C1209.22 446.679 1161.5 425.521 1113.91 404.109C1081.82 389.662 1049.91 374.82 1018.17 359.583C946.325 325.103 874.854 289.82 802.801 255.752C756.888 234.042 710.694 212.211 660.281 202.938C613.02 194.18 564.761 192.131 516.927 196.85C466.695 201.782 418.673 215.486 370.098 227.532C330.565 237.327 290.73 245.866 251.087 255.19C221.158 262.222 191.612 271.344 161.372 276.348C128.148 281.853 94.3817 284.937 60.7259 286.685C42.1298 287.69 23.2725 283.671 4.52575 282.034C2.70733 281.873 0.858773 282.034 -0.979736 282.034L-0.899364 199.401Z" fill="#E67FCA"/>
<path d="M1511.43 4.75018C1467.33 12.486 1422.78 12.6367 1378.24 11.9435C1349.34 11.4914 1320.47 9.42181 1291.57 9.04005C1275.77 8.82907 1259.95 10.9388 1244.12 11.4311C1221.02 12.1444 1197.91 12.2852 1174.8 12.7775C1135.41 13.6214 1096 15.6306 1056.63 15.1384C1013.99 14.6059 971.351 12.1244 928.754 9.84383C845.187 5.33295 769.727 -22.9982 700.336 -68.8906C663.707 -93.1228 624.857 -113.417 585.525 -132.837C574.886 -138.101 564.578 -144.038 554.17 -149.775C521.368 -167.859 485.301 -176.901 449.817 -187.52C426.599 -194.492 403.422 -201.585 380.225 -209.622C397.876 -208.828 415.759 -209.622 433.109 -206.899C464.565 -201.967 496.131 -196.582 526.853 -188.384C563.81 -178.549 599.713 -165.116 634.049 -148.278C657.247 -136.875 680.022 -124.588 702.888 -112.503C755.009 -84.965 809.24 -63.0134 866.395 -48.1446C893.028 -41.2125 919.641 -34.6924 947.008 -31.5177C965.785 -29.3476 984.1 -32.1204 1002.51 -35.3654C1028.88 -40.017 1055.55 -43.0811 1081.77 -48.4259C1136.77 -59.6378 1191.48 -72.3065 1246.47 -83.5184C1269.27 -88.1599 1292.62 -90.0686 1315.51 -94.2781C1328.02 -96.5788 1339.92 -102.205 1352.43 -104.425C1389.1 -110.915 1425.87 -116.849 1462.75 -122.227C1478.82 -124.608 1495.2 -125.362 1511.43 -126.859V4.75018Z" fill="#E67FCA"/>
<path d="M1511.43 1523.16C1471.48 1518.55 1434.53 1502.42 1395.9 1493.02C1352.31 1482.43 1314.52 1459.76 1275.42 1439.77C1224.98 1413.95 1174.87 1387.65 1123.98 1362.72C1092.12 1347.12 1058.48 1335.48 1023.79 1328.07C1005.89 1324.24 987.184 1324.35 969.08 1321.24C935.592 1315.5 902.227 1309.13 868.987 1302.16C841.65 1296.42 814.826 1287.92 787.329 1283.3C758.194 1278.4 728.657 1274.83 699.191 1273.93C655.87 1272.63 612.439 1275.13 569.099 1274.25C539.532 1273.53 510.022 1271.28 480.69 1267.5C448.39 1263.48 415.98 1258.78 384.334 1251.35C336.11 1240.04 290.308 1221.42 244.828 1201.92C194.173 1180.2 145.287 1155.04 97.4357 1127.86C67.035 1110.58 37.3375 1092.07 7.2784 1074.21C4.76678 1072.71 1.84324 1071.92 -0.889404 1070.8V996.591C1.61217 997.827 4.07357 999.113 6.59524 1000.29C23.6743 1008.33 40.3013 1017.55 57.953 1023.97C113.4 1044.12 169.63 1061.51 228.181 1070.81C260.018 1075.84 291.745 1080.46 324.065 1079.72C335.96 1079.44 347.875 1079.33 359.77 1079.66C402.146 1080.81 444.02 1076.74 485.612 1068.73C507.313 1064.55 529.013 1059.98 550.915 1057.38C582.39 1053.65 613.705 1049.89 644.528 1041.85C686.301 1030.95 727.502 1018.96 767.045 1001.1C787.447 991.926 808.787 985 830.69 980.447C871.699 971.947 913.382 966.743 954.483 958.676C993.399 950.98 1033.08 947.824 1072.72 949.272C1079.4 949.513 1086.15 948.077 1092.81 947.263C1113.46 944.671 1134.4 942.069 1154.75 946.972C1177.35 952.417 1200.21 958.324 1221.51 967.426C1263.87 985.502 1302.91 1010.52 1337.04 1041.44C1357.28 1059.72 1378.66 1075.95 1404.21 1086.16C1424.96 1094.43 1445.28 1103.75 1467.69 1107.18C1482.37 1109.44 1496.82 1112.79 1511.44 1115.64V1157.66C1506.8 1157.53 1502.15 1157.44 1497.51 1157.26C1481.21 1156.64 1464.72 1157.34 1448.67 1155.03C1429.45 1152.28 1410.4 1149.88 1390.93 1150.62C1378.36 1151.11 1365.64 1151.18 1353.17 1149.76C1323.38 1146.36 1294 1150.44 1264.65 1153.78C1236.11 1157.03 1207.63 1159.53 1178.86 1159.23C1159.07 1159.04 1139.22 1159.81 1119.48 1161.24C1093.21 1163.1 1067.07 1167.21 1040.81 1168.09C1016.91 1168.89 992.9 1166.86 968.96 1165.69C942.497 1164.41 917.11 1158.74 892.044 1149.62C833.995 1128.39 775.203 1109.36 712.764 1106.13C699.583 1105.44 686.05 1105.25 673.12 1107.45C655.037 1110.47 637.234 1115.59 619.542 1120.6C571.319 1134.26 522.192 1142.38 471.989 1141.92C418.582 1141.44 365.182 1140.37 311.788 1138.7C293.001 1138.11 273.892 1136.58 255.658 1132.37C228.261 1126.04 201.497 1116.98 174.462 1109.08L158.79 1104.51C160.351 1106.95 162.644 1108.84 165.34 1109.91C193.309 1120.91 220.927 1132.93 249.399 1142.43C287.385 1155.11 325.933 1166.18 364.442 1177.23C395.294 1186.09 426.137 1195.42 457.542 1201.8C498.552 1210.14 539.823 1218.57 582.189 1215.51C591.472 1214.84 600.725 1213.63 609.988 1212.72C632.482 1210.5 655.017 1208.64 677.47 1206.05C710.158 1202.19 743.166 1201.85 775.926 1205.05C806.99 1208.14 838.214 1209.73 869.268 1212.73C900.553 1215.75 931.928 1218.51 962.932 1223.48C1019.83 1232.58 1075.07 1249.04 1130.71 1263.86C1171.1 1274.63 1209.26 1290.25 1244.48 1313.09C1281.43 1336.99 1316.05 1363.67 1347.78 1394.22C1380.39 1425.63 1415.15 1454.42 1459.62 1467.47C1476.41 1472.4 1494.19 1473.93 1511.52 1477.01L1511.43 1523.16ZM786.887 1089.56C786.716 1089.97 786.555 1090.38 786.395 1090.79C793.166 1092.16 799.877 1094.18 806.719 1094.81C844.654 1098.35 881.786 1106.42 918.607 1115.52C981.136 1130.98 1044.31 1138.01 1108.56 1132.83C1129.2 1131.16 1149.67 1127.26 1170.22 1124.49C1194.48 1121.23 1219 1119.32 1242.95 1114.55C1268.68 1109.42 1294.32 1105.51 1320.57 1106C1322.33 1106 1324.08 1105.75 1326.82 1105.53C1325.48 1104.27 1324.97 1103.46 1324.23 1103.14C1301.36 1093.1 1282.37 1077.18 1262.27 1062.82C1240.29 1047.11 1217.2 1032.68 1190.36 1026.35C1169.79 1021.54 1149.17 1016.21 1127.65 1019.07C1086.11 1024.56 1044.53 1029.83 1003.08 1035.62C976.113 1039.39 948.826 1042.27 922.454 1048.59C897.881 1054.48 874.422 1064.92 850.18 1072.38C829.273 1078.82 807.974 1083.9 786.887 1089.56Z" fill="#E67FCA"/>
<path d="M1511.43 2175.7V2349.34C1508.64 2349.23 1505.84 2349.09 1503.05 2349.01C1483.71 2348.41 1464.15 2349.46 1445.07 2346.88C1403.78 2341.28 1362.69 2334.89 1322.12 2324.15C1268.23 2309.86 1214.12 2296.61 1161.63 2277.58C1158.03 2276.27 1154.47 2274.89 1149.31 2272.95C1160.98 2272.95 1170.89 2271.79 1180.46 2273.15C1219.64 2278.72 1258.76 2284.98 1297.87 2291.11C1307.54 2292.62 1317.06 2295.51 1326.76 2296.14C1361.41 2298.48 1396.16 2299.37 1430.74 2302.34C1451.25 2304.1 1471.21 2302.29 1491.25 2298.98C1494.54 2298.44 1497.69 2296.97 1500.9 2295.97C1484.83 2291.63 1469.33 2288.82 1453.85 2285.92C1404.39 2276.69 1355.12 2266.51 1306.95 2251.76C1281.78 2244.02 1256.8 2235.69 1230.48 2232.54C1200.4 2228.97 1170.38 2224.69 1140.23 2221.88C1116.12 2219.64 1091.89 2218.08 1067.71 2218.14C1030.15 2218.25 992.659 2219.15 955.517 2212.06C950.836 2211.17 946.023 2210.96 941.271 2210.43L940.849 2212.29C957.286 2224.51 972.998 2237.85 990.298 2248.76C1029.14 2273.28 1068.88 2296.37 1107.96 2320.51C1129.43 2333.74 1153.06 2343.1 1177.77 2348.17C1206.7 2354.25 1235.59 2360.57 1264.43 2367.11C1311.91 2377.8 1360.12 2384.97 1408.65 2388.54C1443.37 2391.16 1477.62 2395.85 1511.45 2403.9V2521.58C1466.66 2511.65 1421.94 2501.49 1377.07 2491.85C1291.79 2473.61 1210.87 2445.06 1137.67 2396.19C1103.2 2373.17 1066.49 2353.52 1031.48 2331.27C974.616 2295.1 921.339 2253.5 862.487 2220.33C835.884 2205.33 810.165 2188.7 783.24 2174.3C728.617 2145.08 671.905 2120.91 610.782 2108.56C589.333 2104.23 568.054 2098.31 546.384 2096.08C516.626 2093.01 486.607 2095.59 457.211 2100.89C433.461 2105.17 410.163 2112.02 386.745 2117.97C330.337 2132.39 273.953 2146.92 217.592 2161.54C173.136 2173.15 127.746 2177.17 82.0645 2179.57C54.3864 2181.02 26.8088 2183.45 -0.879381 2185.45V2056.68C26.4371 2053.74 53.7635 2050.9 81.0699 2047.87C107.191 2044.96 133.312 2039.49 159.433 2039.38C207.425 2039.18 255.427 2042.56 303.449 2043.51C328.817 2044.01 354.234 2042.67 379.622 2041.9C393.345 2041.48 407.139 2039.16 420.742 2040.06C448.149 2041.89 475.496 2044.95 502.792 2048.19C553.567 2054.22 603.257 2065.74 652.485 2079.06C654.434 2079.58 656.423 2079.98 658.392 2080.43C656.967 2078.37 654.922 2076.82 652.555 2076.01C615.222 2061.5 577.97 2046.77 540.486 2032.64C511.954 2021.89 483.694 2009.75 454.307 2002.03C400.287 1987.85 345.444 1976.8 291.092 1963.81C257.597 1955.77 224.574 1945.72 190.969 1938.23C161.482 1931.64 131.694 1925.66 101.665 1922.43C67.6478 1918.75 33.2687 1918.41 -0.949707 1916.65V1804.62C0.426664 1804.85 1.79299 1805.13 3.16936 1805.29C24.91 1807.78 46.942 1808.79 68.3511 1813C119.126 1822.96 168.896 1836.97 218.044 1853.31C242.788 1861.53 268.417 1867.48 292.448 1877.37C342.008 1897.76 390.743 1920.15 439.851 1941.67C474.632 1956.9 509.794 1971.28 544.143 1987.4C575.287 2002.03 605.688 2018.49 636.4 2034.16C673.572 2053.12 710.865 2071.78 747.806 2091.15C780.437 2108.23 812.515 2126.56 849.276 2133.66C877.848 2139.18 906.46 2144.56 935.153 2149.41C962.47 2154.01 989.786 2159.88 1017.32 2161.53C1061.74 2164.22 1106.34 2164.27 1150.86 2164.64C1165.93 2164.77 1181.1 2162.84 1196.15 2161.22C1225.57 2158.07 1254.87 2153.59 1284.34 2151.24C1334.57 2147.22 1384.43 2152.77 1433.92 2161.39C1459.8 2165.88 1485.6 2170.91 1511.43 2175.7Z" fill="#E67FCA"/>
<path d="M-0.899377 744.595V730.59C29.421 736.98 59.5203 744.796 90.1119 749.357C121.437 754.039 153.284 755.114 184.83 758.499C242.216 764.658 299.812 766.607 357.419 765.984C393.476 765.592 429.493 761.744 465.54 759.574C475.084 758.992 484.819 759.856 494.192 758.379C540.195 751.105 586.329 744.404 631.98 735.272C669.855 727.707 707.047 716.746 744.682 707.895C764.463 703.244 784.586 700.963 804.961 704.158C809.773 704.901 814.746 704.489 819.639 704.72C824.531 704.952 829.333 705.293 834.176 705.584C833.805 704.851 833.293 704.198 832.669 703.664C832.044 703.129 831.321 702.724 830.539 702.47C799.254 690.796 768.914 677.163 740.492 659.481C718.39 645.747 695.142 634.365 669.906 627.985C636.632 619.606 602.504 617.738 568.436 619.787C532.128 621.977 495.95 626.127 459.682 628.829C417.136 632.054 374.569 636.414 331.961 637.107C287.696 637.831 243.341 635.289 199.076 633.089C173.257 631.823 147.437 629.331 121.809 625.906C80.2353 620.252 39.193 611.213 -0.909424 598.88V516.268C33.6405 523.813 67.8991 533.227 102.791 538.501C162.828 547.543 223.238 554.174 283.778 559.267C295.161 560.272 306.534 561.276 317.936 562.14C346.73 564.361 375.503 567.224 404.336 568.48C427.584 569.484 450.761 567.766 474.029 564.903C495.358 562.271 517.229 563.728 538.899 564.431C582.461 565.838 626.093 566.802 669.504 570.158C700.447 572.559 730.627 579.953 758.104 595.836C779.704 608.324 801.695 620.119 823.486 632.255C848.603 646.21 875.527 655.432 903.236 661.952C934.53 669.306 966.046 676.218 997.823 680.84C1023.35 684.547 1049.22 685.421 1074.63 690.957C1126.06 702.169 1177.48 713.632 1229.34 722.503C1270.39 729.535 1312.08 732.891 1353.49 737.783C1409.59 744.404 1463.62 757.314 1511.43 789.322V909.749C1509.42 908.597 1507.34 907.56 1505.2 906.645C1456.04 888.561 1407.11 869.845 1357.65 852.625C1268.7 821.468 1176.05 802.15 1082.06 795.169C1006.56 789.644 930.934 793.642 855.485 798.183C798.712 801.599 741.959 806.22 685.387 811.655C654.394 814.669 623.541 819.803 592.849 825.248C561.896 830.734 531.133 839.504 499.577 837.626C460.114 835.285 420.732 830.784 381.491 825.791C351.944 822.033 322.739 815.694 293.282 811.153C270.738 807.667 248.073 805.316 225.418 802.252C169.158 794.626 114.907 778.14 59.8317 765.301C39.1058 760.519 19.3142 751.638 -0.899377 744.595Z" fill="#E67FCA"/>
<path d="M1511.43 1839.63C1492.46 1843.02 1473.25 1845.32 1454.58 1849.99C1406.74 1861.99 1360.44 1878.94 1316.82 1901.76C1278.22 1921.96 1237.07 1932.24 1195.09 1941.26C1110.99 1959.35 1026.12 1967.7 940.116 1964.06C882.379 1961.62 828.942 1945.2 778.458 1917.23C743.617 1897.93 708.615 1878.34 671.965 1863.13C621.441 1842.2 569.33 1825.06 517.751 1806.72C494.936 1798.61 470.965 1797.07 446.923 1795.58C416.03 1793.67 385.208 1790.49 354.365 1787.72C327.501 1785.33 300.626 1782.91 273.782 1780.25C242.92 1777.34 212.454 1771.16 182.901 1761.8C168.457 1757.24 153.392 1754.96 138.245 1755.02C99.9876 1754.88 61.7406 1754.3 23.4936 1753.62C15.3659 1753.47 7.26845 1752.18 -0.849121 1751.41V1726.21C51.684 1726.39 103.956 1722.76 156.188 1717.17C198.092 1712.71 240.016 1713.42 281.618 1721.3C309.337 1726.54 337.366 1725.95 365.346 1724.9C397.274 1723.71 429.171 1721.57 461.099 1720.26C496.262 1718.81 530.42 1711.48 564.407 1703.31C606.181 1693.27 648.105 1683.86 691.154 1682.73C720.711 1681.94 750.428 1683.13 779.925 1684.97C814.083 1687.1 848.181 1691.35 882.349 1693.88C931.877 1697.57 980.881 1706.45 1028.56 1720.37C1093.43 1739.27 1157.84 1759.74 1222.8 1778.32C1243.88 1784.2 1265.47 1788.09 1287.27 1789.94C1313.91 1792.35 1340.93 1793.96 1367.53 1792.09C1396.94 1790.08 1426.13 1784.19 1455.28 1779.22C1473.97 1776.04 1492.52 1773.44 1511.43 1776.61V1839.63ZM573.871 1778.52C573.871 1779.19 573.801 1779.87 573.771 1780.53C581.516 1781.33 589.292 1781.9 596.998 1782.99C627.861 1787.39 658.694 1792.03 689.567 1796.44C749.082 1804.89 808.005 1816.27 865.963 1832.32C924.283 1848.46 982.302 1865.77 1040.87 1880.95C1070.58 1888.75 1100.79 1894.46 1131.29 1898.03C1164.27 1901.8 1197.27 1897.1 1230 1891.14C1281.72 1881.73 1330.55 1863.69 1378.77 1843.53C1379.68 1843.06 1380.54 1842.5 1381.35 1841.86C1378.33 1840.57 1375.57 1840.6 1372.85 1840.57C1352.76 1840.34 1332.66 1841.33 1312.7 1839.56C1289.79 1837.49 1267.01 1833.53 1244.38 1829.33C1196.99 1820.5 1149.69 1811.15 1102.42 1801.67C1073.41 1795.85 1044.73 1788.34 1015.59 1783.5C970.828 1776.08 925.458 1775.9 880.209 1774.91C856.409 1774.4 832.589 1774.28 808.829 1772.9C743.125 1769.25 677.451 1764.73 611.787 1773.5C599.208 1775.21 586.52 1776.85 573.871 1778.52Z" fill="#E67FCA"/>
<path d="M-0.899414 1278.11C14.0498 1283.3 29.1195 1288.16 43.918 1293.73C95.5671 1313.22 147.397 1332.34 198.634 1352.9C218.898 1361.02 238.067 1372.04 257.245 1382.64C290.811 1401.17 326.566 1412.85 363.859 1421.48C413.659 1432.99 464.485 1437.7 514.556 1447.04C546.977 1453.06 578.733 1462.74 610.742 1470.97C634.642 1477.11 658.272 1484.47 682.373 1489.61C705.35 1494.52 728.909 1496.65 751.975 1501.14C768.622 1504.41 785.36 1508.37 801.203 1514.3C833.744 1526.47 867.681 1532.24 901.487 1538.9C926.845 1543.92 952.222 1548.84 977.519 1554.15C983.639 1555.6 989.615 1557.6 995.372 1560.13C1035.65 1576.75 1076.38 1592.42 1115.93 1610.6C1143.83 1623.43 1167.63 1643.01 1188.59 1665.69C1206.67 1685.23 1229.3 1697.96 1253.89 1706.35C1294.32 1720.13 1336.46 1725.43 1379.09 1724.83C1403.05 1724.49 1426.97 1721.67 1450.91 1720.05C1454.71 1719.79 1458.53 1720.05 1462.34 1720.05C1462.46 1720.92 1462.59 1721.79 1462.71 1722.65C1451.75 1725.1 1440.87 1728.05 1429.82 1729.93C1388.98 1736.87 1347.81 1738.44 1306.47 1737.21C1256.06 1735.69 1210.38 1720.75 1170.28 1689.71C1151.9 1675.46 1130.38 1667.23 1108.73 1660.3C1081.66 1651.68 1054.16 1644.46 1026.35 1638.67C1005.92 1634.39 984.502 1634.78 964.057 1630.46C927.397 1622.72 890.276 1624.3 853.345 1622.64C821.196 1621.19 788.936 1622.06 756.788 1620.63C710.694 1618.62 664.581 1616.23 618.598 1612.54C572.615 1608.86 526.331 1605.92 480.217 1608.79C457.894 1610.18 435.812 1616.63 413.81 1621.63C378.647 1629.67 343.866 1639.72 308.452 1646.45C265.494 1654.59 222.233 1662.23 178.752 1666.13C139.4 1669.66 99.5455 1670.78 59.9824 1666.02C39.6483 1663.57 19.4046 1660.44 -0.879321 1657.62V1527.37C4.90746 1529.15 10.6742 1531 16.481 1532.71C88.3638 1553.92 159.192 1579.35 234.671 1585.88C265.001 1588.5 295.422 1589.51 325.391 1584.24C366.742 1576.99 408.164 1571.11 450.048 1567.79C505.977 1563.36 561.353 1567.66 616.82 1574.45C648.707 1578.34 680.786 1582.76 712.804 1582.97C746.962 1583.18 781.12 1578.68 815.278 1576.24C823.878 1575.64 832.488 1575.09 841.088 1574.52C839.366 1572.75 837.253 1571.41 834.919 1570.61C806.689 1558.55 777.061 1551.64 747.012 1545.83C704.465 1537.62 662.109 1528.75 618.548 1527.04C571.902 1525.23 525.738 1518.71 479.725 1510.96C444.486 1505.02 408.586 1504.06 373.082 1508.13C344.067 1511.45 314.882 1512.22 285.818 1508.24C230.411 1500.66 177.828 1483.31 126.962 1460.66C86.5152 1442.64 46.5201 1423.58 6.29388 1405.03C3.97293 1404.11 1.59743 1403.34 -0.819042 1402.71L-0.899414 1278.11Z" fill="#E67FCA"/>
<path d="M-0.899364 2266.72C14.4115 2265.87 29.8027 2265.72 45.0232 2264.03C94.383 2258.75 143.25 2249.59 191.17 2236.63C237.926 2223.88 284.23 2209.51 330.967 2196.67C372.157 2185.4 413.87 2176.81 456.658 2174.56C474.34 2173.62 492.032 2171.39 509.674 2171.78C549.659 2172.66 588.75 2180.6 627.71 2189.08C680.599 2200.61 731.561 2219.67 779.041 2245.66C821.236 2268.67 862.427 2293.26 902.854 2319.15C953.157 2351.3 1004.2 2382.33 1057.57 2409.25C1101.5 2431.35 1144.74 2455.18 1189.83 2474.69C1256.14 2503.4 1323.79 2529.03 1393.07 2550.04C1420.51 2558.36 1447.68 2567.54 1475.18 2575.62C1486.98 2579.09 1499.29 2580.73 1511.35 2583.21V2598.61C1481.21 2592.9 1450.97 2587.36 1420.85 2581.41C1406.48 2578.56 1392.1 2575.51 1378.01 2571.52C1337.48 2560.05 1295.89 2551.88 1257.05 2534.9C1209.22 2514.01 1161.5 2492.85 1113.91 2471.44C1081.82 2456.98 1049.91 2442.14 1018.17 2426.91C946.325 2392.42 874.854 2357.14 802.801 2323.07C756.888 2301.36 710.694 2279.54 660.281 2270.26C613.019 2261.51 564.761 2259.46 516.927 2264.17C466.695 2269.1 418.673 2282.81 370.098 2294.85C330.565 2304.66 290.73 2313.2 251.087 2322.52C221.158 2329.55 191.612 2338.66 161.372 2343.68C128.148 2349.18 94.3817 2352.27 60.7259 2354.01C42.1298 2355.02 23.2725 2351 4.52575 2349.36C2.70733 2349.19 0.858773 2349.36 -0.979736 2349.36L-0.899364 2266.72Z" fill="#E67FCA"/>
<path d="M1511.43 989.649C1468.81 976.99 1428.81 958.013 1389.07 938.502C1344.99 916.852 1299.93 896.729 1251.52 888.561C1189.76 878.153 1127.95 867.092 1064.86 865.916C1011.13 864.912 958.371 871.05 905.807 881.729C875.668 887.858 844.936 891.696 816.112 902.898C782.738 915.868 748.087 924.076 713.417 932.203C640.208 949.373 566.989 966.482 493.579 982.767C446.27 993.266 398.459 1001.29 349.914 1003.31C320.609 1004.53 291.102 1006.33 261.957 1004.16C238.278 1002.38 214.638 996.4 191.632 989.94C143.338 976.378 96.2604 959.289 51.5133 936.262C34.1027 927.311 16.5615 918.63 -0.919434 909.83V828.614C8.63479 832.904 18.0383 837.545 27.7533 841.413C64.9541 856.374 103.382 868.082 142.605 876.405C192.546 886.833 242.738 896.498 293.945 897.593C339.376 898.598 384.886 899.351 430.296 897.944C467.74 896.779 505.143 892.921 542.446 889.104C577.87 885.467 613.354 881.559 648.426 875.521C704.626 865.846 760.465 853.991 816.564 843.663C861.05 835.476 905.828 829.287 951.268 830.392C983.648 831.185 1016.04 832.672 1048.43 832.934C1092.75 833.285 1136.06 841.684 1179.31 849.51C1271.26 866.147 1354.97 905.208 1436.73 948.569C1460.85 961.338 1485.91 970.882 1511.41 979.844L1511.43 989.649Z" fill="#E67FCA"/>
<path d="M1511.43 2072.08C1467.33 2079.81 1422.78 2079.97 1378.24 2079.27C1349.34 2078.82 1320.47 2076.75 1291.57 2076.37C1275.77 2076.16 1259.95 2078.27 1244.12 2078.76C1221.02 2079.47 1197.91 2079.6 1174.8 2080.1C1135.41 2080.94 1096 2082.96 1056.63 2082.47C1013.99 2081.93 971.351 2079.45 928.754 2077.17C845.187 2072.66 769.727 2044.33 700.336 1998.44C663.707 1974.21 624.857 1953.91 585.525 1934.48C574.886 1929.23 564.578 1923.29 554.17 1917.55C521.368 1899.47 485.301 1890.43 449.817 1879.81C426.599 1872.84 403.422 1865.74 380.225 1857.71C397.876 1858.5 415.759 1857.71 433.109 1860.43C464.565 1865.35 496.131 1870.75 526.853 1878.95C563.793 1888.79 599.68 1902.23 633.999 1919.07C657.197 1930.47 679.972 1942.76 702.838 1954.84C754.959 1982.37 809.19 2004.34 866.345 2019.2C892.978 2026.13 919.591 2032.66 946.958 2035.82C965.735 2038 984.049 2035.23 1002.45 2031.97C1028.83 2027.32 1055.5 2024.27 1081.72 2018.91C1136.72 2007.7 1191.43 1995.03 1246.42 1983.82C1269.22 1979.17 1292.57 1977.27 1315.46 1973.06C1327.97 1970.76 1339.87 1965.13 1352.38 1962.91C1389.05 1956.41 1425.84 1950.56 1462.7 1945.11C1478.77 1942.73 1495.15 1941.97 1511.38 1940.47L1511.43 2072.08Z" fill="#E67FCA"/>
<path d="M1511.43 1661.79C1497.2 1661.31 1482.95 1661.34 1468.77 1660.24C1428.94 1657.04 1388.86 1660.93 1350.39 1671.74C1319.32 1680.46 1287.79 1680.42 1257.96 1666.71C1244.6 1660.58 1230.83 1652.81 1220.79 1642.35C1183.86 1603.71 1141.19 1571.82 1101.14 1536.86C1059.71 1500.69 1012.42 1473.84 963.856 1448.72C925.539 1428.9 884.398 1419.64 842.494 1412.14C818.865 1407.92 795.557 1401.87 771.928 1397.69C754.527 1394.61 736.524 1394.62 719.334 1390.84C679.801 1382.12 639.645 1378.95 599.57 1374.76L593.02 1374.05C593.02 1373.47 593.02 1372.87 593.02 1372.28C611.334 1371.73 629.649 1370.68 647.964 1370.73C671.292 1370.79 694.64 1371.43 717.948 1372.38C750.559 1373.71 783.15 1375.52 815.75 1377.22C834.839 1378.23 853.927 1378.95 873.015 1380.62C932.29 1385.82 988.882 1401.1 1043.38 1425.03C1059.26 1432.01 1076.46 1436.02 1093.08 1441.27C1136.19 1454.89 1176.72 1474.32 1216.2 1496.08C1243.57 1511.15 1270.99 1526.15 1298.08 1541.71C1337.26 1564.2 1379.81 1576.76 1423.77 1584.91C1452.84 1590.29 1482.16 1594.19 1511.38 1598.75L1511.43 1661.79Z" fill="#E67FCA"/>
<path d="M-0.899364 1125.48C53.6431 1141.77 107.543 1158.86 155.464 1191.64C220.104 1235.85 285.346 1279.19 354.094 1317.12C389.9 1336.86 427.915 1346.09 467.619 1351.22C488.164 1353.88 508.659 1356.9 529.174 1359.79C530.239 1359.94 531.183 1360.56 532.248 1362.73C527.627 1363.05 522.985 1363.73 518.374 1363.6C488.566 1362.6 458.728 1362.11 428.96 1360.1C414.182 1359.1 399.464 1355.83 384.947 1352.58C345.605 1343.75 308.593 1328.89 272.637 1310.57C244.225 1296.08 215 1283.13 185.795 1270.26C177.195 1266.46 167.53 1264.86 158.207 1262.92C127.676 1256.55 96.9234 1251.01 66.5428 1244.14C43.8478 1239 21.5144 1232.3 -0.979736 1226.29L-0.899364 1125.48Z" fill="#E67FCA"/>
<path d="M-0.899414 621.364C26.8892 627.171 54.7381 632.667 82.4866 638.865C117.458 646.681 152.159 655.834 187.272 662.977C205.677 666.694 224.725 667.347 243.532 669.206C265.775 671.406 287.998 674.098 310.291 675.324C337.751 676.844 365.252 677.645 392.793 677.725C426.8 677.836 460.808 676.409 494.805 676.58C519.489 676.7 544.164 678.308 568.838 679.323C570.58 679.521 572.303 679.857 573.992 680.327L574.092 682.568C564.668 683.984 555.275 685.813 545.801 686.747C503.867 690.856 461.591 690.766 419.949 698.803C401.322 702.399 382.013 702.289 363.105 704.65C337.467 707.865 311.868 711.572 286.36 715.55C230.733 724.2 175.166 726.21 119.367 716.786C78.6689 709.904 38.2819 701.998 -0.869275 688.656L-0.899414 621.364Z" fill="#E67FCA"/>
<path d="M1511.43 1346.72C1507.68 1344.88 1504.09 1342.58 1500.16 1341.29C1464.52 1329.6 1433.72 1309.88 1405.8 1285.24C1384.49 1266.42 1361.3 1249.99 1334.53 1240.48C1313.16 1232.88 1290.64 1228.35 1268.44 1223.31C1246.89 1218.42 1225.1 1214.63 1203.44 1210.25C1201.76 1209.91 1200.26 1208.69 1197.71 1207.39C1211.41 1207.39 1223.83 1207.48 1236.33 1207.39C1249.39 1207.26 1262.39 1207.39 1275.38 1206.59C1316.91 1204 1358.59 1203.58 1399.4 1211.47C1434.96 1218.34 1469.67 1229.55 1504.76 1238.8C1506.96 1239.39 1509.2 1239.81 1511.43 1240.33V1346.72Z" fill="#E67FCA"/>
</g>
<defs>
<clipPath id="clip0_1758_2641">
<rect width="1512" height="2354" fill="white"/>
</clipPath>
</defs>
</svg>
