<svg width="1440" height="810" viewBox="0 0 1440 810" fill="none" xmlns="http://www.w3.org/2000/svg">
<g clip-path="url(#clip0_3176_1630)">
<rect width="1440" height="810" fill="white"/>
<path d="M1440 0H0V810H1440V0Z" fill="#6563FB"/>
<path d="M1440 0H0V810H1440V0Z" fill="#6563FB"/>
<mask id="mask0_3176_1630" style="mask-type:luminance" maskUnits="userSpaceOnUse" x="0" y="0" width="1440" height="810">
<path d="M1440 0H0V810H1440V0Z" fill="white"/>
</mask>
<g mask="url(#mask0_3176_1630)">
<path d="M1440.07 484.101C1402.02 480.96 1366.85 469.953 1330.06 463.536C1288.57 456.336 1252.59 440.838 1215.35 427.203C1167.3 409.581 1119.6 391.635 1071.15 374.625C1040.15 363.809 1008.22 355.891 975.754 350.973C958.708 348.363 940.897 348.435 923.662 346.32C891.778 342.396 860.008 338.055 828.352 333.297C802.333 329.4 776.791 323.577 750.601 320.4C722.863 317.052 694.738 314.622 666.685 314.01C625.438 313.11 584.083 314.82 542.818 314.226C514.666 313.734 486.604 312.198 458.632 309.618C427.879 306.873 397.018 303.678 366.886 298.593C320.986 290.88 277.363 278.172 234.055 264.87C185.824 250.047 139.276 232.884 93.7184 214.326C64.8014 202.563 36.5054 189.9 7.88538 177.741C5.33958 176.823 2.74334 176.05 0.109375 175.428V124.776C2.48538 125.622 4.83437 126.495 7.22837 127.305C23.4914 132.786 39.3224 139.077 56.1344 143.505C108.928 157.257 162.469 169.128 218.215 175.473C248.527 178.902 278.74 182.052 309.511 181.548C320.842 181.368 332.182 181.287 343.513 181.548C383.586 182.199 423.648 179.704 463.33 174.087C484.03 171.234 504.658 168.12 525.511 166.338C555.481 163.8 585.298 161.235 614.611 155.745C654.382 148.302 693.613 140.13 731.26 127.935C751.044 121.593 771.314 116.879 791.866 113.841C830.908 108.045 870.598 104.49 909.766 98.9911C947.049 93.7208 984.707 91.5713 1022.35 92.5651C1028.71 92.7361 1035.14 91.7551 1041.48 91.1971C1061.14 89.3971 1081.08 87.6511 1100.46 90.9991C1121.98 94.7161 1143.74 98.7481 1164.03 104.958C1204.35 117.288 1241.52 134.361 1274.02 155.466C1293.29 167.94 1313.62 179.01 1337.98 185.985C1357.78 191.628 1377.08 197.982 1398.42 200.322C1412.39 201.87 1426.16 204.156 1440.08 206.1V234.774C1435.66 234.684 1431.24 234.621 1426.81 234.495C1411.3 234.072 1395.6 234.558 1380.31 232.983C1362.02 231.102 1343.87 229.464 1325.33 229.977C1313.35 230.423 1301.35 230.225 1289.39 229.383C1261.02 227.07 1233.05 229.842 1205.1 232.083C1177.91 234.297 1150.8 236.007 1123.42 235.809C1104.57 235.665 1085.67 236.196 1066.87 237.168C1041.86 238.437 1016.97 241.245 991.963 241.848C969.211 242.388 946.351 241.002 923.563 240.21C898.821 239.282 874.259 235.602 850.33 229.239C795.052 214.749 739.072 201.771 679.627 199.539C667.027 199.062 654.184 198.945 641.881 200.439C624.655 202.491 607.681 205.983 590.86 209.439C544.96 218.763 498.16 224.298 450.37 223.992C399.52 223.656 348.673 222.921 297.829 221.787C279.946 221.382 261.748 220.338 244.387 217.467C218.287 213.147 192.817 206.964 167.077 201.573L152.155 198.459C153.848 200.246 156.009 201.522 158.392 202.14C185.023 209.646 211.321 217.854 238.429 224.334C274.6 232.983 311.329 240.534 347.968 248.085C377.344 254.124 406.711 260.496 436.609 264.852C475.66 270.54 514.909 276.291 555.292 274.212C564.139 273.744 572.941 272.916 581.761 272.295C603.181 270.783 624.637 269.514 646.021 267.75C677.216 265.096 708.569 264.856 739.801 267.03C769.375 269.136 799.111 270.225 828.676 272.268C858.466 274.329 888.337 276.21 917.857 279.603C972.028 285.813 1024.63 297.045 1077.61 307.161C1116.06 314.514 1152.41 325.161 1185.94 340.758C1221.11 357.066 1254.07 375.273 1284.29 396.117C1315.34 417.555 1348.44 437.193 1390.79 446.103C1406.77 449.469 1423.7 450.513 1440.2 452.61L1440.07 484.101ZM750.196 188.217C750.025 188.496 749.872 188.784 749.719 189.063C756.172 189.963 762.562 191.376 769.078 191.763C805.195 194.184 840.547 199.692 875.611 205.902C935.146 216.45 995.311 221.247 1056.47 217.71C1076.13 216.576 1095.61 213.912 1115.18 212.022C1138.29 209.799 1161.63 208.494 1184.48 205.236C1208.98 201.735 1233.39 199.071 1258.39 199.404C1260.06 199.404 1261.73 199.233 1264.33 199.08C1263.06 198.18 1262.53 197.667 1261.87 197.46C1240.09 190.602 1222.01 179.739 1202.88 169.938C1181.89 159.3 1159.92 149.4 1134.36 145.089C1114.78 141.804 1095.14 138.168 1074.66 140.121C1035.06 143.865 995.509 147.465 956.044 151.416C930.367 153.981 904.384 155.916 879.274 160.263C855.874 164.286 833.536 171.405 810.46 176.463C790.552 180.9 770.266 184.356 750.196 188.217Z" fill="#5555D8"/>
<path d="M1440.07 929.394V1047.88C1437.42 1047.81 1434.75 1047.71 1432.09 1047.65C1413.68 1047.25 1395.05 1047.96 1376.88 1046.2C1337.57 1042.38 1298.45 1038.02 1259.82 1030.69C1208.52 1020.94 1156.99 1011.9 1107.01 998.91C1103.59 998.01 1100.19 997.11 1095.31 995.751C1106.42 995.751 1115.86 994.959 1125.01 995.895C1162.31 999.693 1199.57 1003.99 1236.8 1008.14C1246.01 1009.18 1255.07 1011.15 1264.31 1011.58C1297.3 1013.17 1330.39 1013.79 1363.31 1015.81C1382.84 1017.01 1401.85 1015.81 1420.91 1013.52C1424.04 1013.15 1427.04 1012.15 1430.1 1011.46C1414.8 1008.5 1400.04 1006.59 1385.3 1004.61C1338.2 998.307 1291.29 991.359 1245.43 981.297C1221.46 976.014 1197.68 970.326 1172.62 968.175C1143.97 965.745 1115.39 962.775 1086.69 960.903C1063.73 959.373 1040.65 958.311 1017.63 958.356C981.873 958.428 946.17 959.04 910.809 954.207C906.309 953.595 901.809 953.451 897.246 953.091L896.841 954.36C912.492 962.703 927.441 971.802 943.929 979.245C980.91 995.976 1018.75 1011.73 1055.96 1028.2C1077.17 1037.46 1099.52 1043.82 1122.43 1047.1C1149.98 1051.25 1177.48 1055.56 1204.94 1060.03C1250.4 1067.33 1296.23 1072.2 1342.22 1074.6C1375.26 1076.4 1407.92 1079.59 1440.09 1085.08V1165.38C1397.44 1158.61 1354.86 1151.68 1312.14 1145.1C1230.94 1132.65 1153.89 1113.16 1084.19 1079.82C1051.37 1064.11 1016.42 1050.7 983.079 1035.51C928.935 1010.83 878.211 982.413 822.177 959.814C796.842 949.572 772.353 938.214 746.721 928.404C694.71 908.46 640.71 891.972 582.516 883.539C562.086 880.587 541.827 876.546 521.199 875.025C492.858 872.928 464.274 874.692 436.293 878.31C413.676 881.226 391.491 885.897 369.198 889.965C315.486 899.805 261.786 909.705 208.098 919.665C165.798 927.585 122.598 930.33 79.0563 931.968C52.7043 932.958 26.4423 934.614 0.0813438 935.982V848.178C26.0913 846.171 52.1103 844.227 78.1113 842.166C102.978 840.177 127.854 836.442 152.721 836.37C198.414 836.235 244.125 838.539 289.845 839.187C314.001 839.529 338.202 838.611 362.376 838.089C375.444 837.801 388.575 836.217 401.526 836.829C427.626 838.08 453.663 840.168 479.655 842.382C528.003 846.495 575.307 854.352 622.188 863.442C624.042 863.802 625.932 864.072 627.813 864.342C626.274 862.842 624.349 861.798 622.251 861.327C586.701 851.427 551.232 841.374 515.547 831.735C488.412 824.4 461.502 816.147 433.521 810.9C382.086 801.207 329.868 793.665 278.1 784.8C246.204 779.31 214.767 772.452 182.763 767.349C154.692 762.849 126.324 758.763 97.7403 756.549C65.3403 754.038 32.6163 753.849 0.0273438 752.598V676.17C1.34134 676.323 2.64634 676.521 3.95134 676.629C24.6513 678.33 45.6303 679.014 66.0513 681.885C114.399 688.689 161.784 698.247 208.584 709.398C232.146 715.005 256.545 719.064 279.423 725.814C326.619 739.728 373.023 755.01 419.823 769.689C452.943 780.084 486.423 789.894 519.129 800.901C548.775 810.882 577.728 822.114 606.969 832.806C642.366 845.748 677.871 858.474 713.043 871.695C744.111 883.395 774.657 895.86 809.658 900.702C836.865 904.473 864.108 908.145 891.432 911.448C917.433 914.589 943.443 918.594 969.66 919.719C1011.96 921.519 1054.42 921.591 1096.81 921.843C1111.21 921.933 1125.61 920.619 1139.94 919.512C1167.95 917.361 1195.85 914.301 1223.91 912.699C1271.74 909.954 1319.21 913.743 1366.34 919.629C1390.91 922.689 1415.48 926.1 1440.07 929.394Z" fill="#5555D8"/>
<path d="M0.10275 -47.1868V-56.6998C28.9657 -52.3798 57.6037 -47.0428 86.7547 -43.9288C116.581 -40.7338 146.911 -40.0048 176.944 -37.6918C231.583 -33.4888 286.42 -32.1568 341.275 -32.5888C375.61 -32.8498 409.9 -35.4778 444.226 -36.9628C453.307 -37.3588 462.577 -36.7648 471.505 -37.7728C515.308 -42.7408 559.228 -47.3128 602.698 -53.5408C638.761 -58.7068 674.176 -66.1858 710.005 -72.2248C728.842 -75.4018 748.003 -76.9588 767.407 -74.7718C771.988 -74.2678 776.722 -74.5468 781.384 -74.3938C786.046 -74.2408 790.609 -73.9978 795.217 -73.7998C794.839 -74.3287 794.359 -74.7757 793.804 -75.1138C793.175 -75.4885 792.492 -75.7618 791.779 -75.9238C761.989 -83.8888 733.099 -93.1948 706.036 -105.264C684.994 -114.633 662.836 -122.364 638.833 -126.756C607.144 -132.471 574.654 -133.749 542.209 -132.345C507.64 -130.851 473.197 -128.016 438.709 -126.18C398.209 -123.984 357.664 -121.005 317.101 -120.528C274.954 -120.033 232.717 -121.77 190.57 -123.273C165.982 -124.173 141.403 -125.838 116.995 -128.169C77.6946 -131.981 38.6578 -138.142 0.09375 -146.619V-202.986C32.9887 -197.838 65.6048 -191.412 98.8238 -187.821C155.992 -181.647 213.511 -177.129 271.156 -173.646C281.956 -172.962 292.828 -172.269 303.682 -171.684C331.096 -170.172 358.492 -168.219 385.951 -167.364C408.082 -166.68 430.15 -167.841 452.308 -169.803C472.612 -171.603 493.438 -170.604 514.075 -170.127C555.547 -169.164 597.091 -168.507 638.428 -166.212C667.894 -164.574 696.631 -159.534 722.785 -148.689C743.359 -140.175 764.293 -132.12 785.047 -123.84C808.96 -114.3 834.592 -108 860.98 -103.581C890.779 -98.5588 920.785 -93.8428 951.043 -90.6838C975.343 -88.1548 999.976 -87.5608 1024.17 -83.7808C1073.15 -76.1308 1122.11 -68.3098 1171.48 -62.2618C1210.57 -57.4648 1250.27 -55.1698 1289.69 -51.8308C1343.11 -47.3308 1394.55 -38.5018 1440.08 -16.6588V65.5202C1438.15 64.7402 1436.17 64.0322 1434.14 63.3962C1387.34 51.0572 1340.74 38.2862 1293.65 26.4962C1207.65 5.0442 1119.77 -8.08426 1031.25 -12.7078C959.359 -16.4788 887.35 -13.7518 815.512 -10.6468C761.44 -8.28884 707.452 -5.21384 653.548 -1.42184C624.037 0.639161 594.661 4.14016 565.438 7.85716C535.972 11.6012 506.677 17.5772 476.635 16.3082C439.06 14.7062 401.557 11.6282 364.198 8.20816C336.064 5.66116 308.254 1.33216 280.21 -1.79984C258.736 -4.17584 237.163 -5.77784 215.59 -7.87484C162.004 -13.0408 110.362 -24.2998 57.9278 -33.0478C38.1908 -36.3148 19.3447 -42.3718 0.10275 -47.1868Z" fill="#5555D8"/>
<path d="M1440.07 700.065C1422.01 702.378 1403.73 703.944 1385.94 707.13C1340.39 715.32 1296.31 726.885 1254.77 742.455C1218.02 756.252 1178.84 763.254 1138.87 769.41C1058.77 781.758 977.986 787.455 896.095 784.971C843.316 783.44 791.22 772.621 742.195 753.012C709.021 739.845 675.694 726.48 640.801 716.112C592.687 701.829 543.07 690.138 493.966 677.619C472.24 672.084 449.416 671.04 426.52 670.023C397.108 668.718 367.759 666.549 338.392 664.623C312.814 662.985 287.227 661.338 261.667 659.52C232.538 657.574 203.606 653.362 175.132 646.92C161.177 643.795 146.916 642.243 132.616 642.294C96.1839 642.204 59.7699 641.808 23.3469 641.34C15.6159 641.25 7.90287 640.359 0.171875 639.837V622.665C50.1669 622.8 99.9009 620.307 149.671 616.5C189.568 613.458 229.483 613.944 269.101 619.326C295.489 622.926 322.201 622.494 348.823 621.783C379.225 620.964 409.591 619.506 439.993 618.615C473.473 617.625 505.999 612.621 538.363 607.05C578.134 600.192 618.049 593.775 659.044 593.001C687.187 592.461 715.483 593.28 743.563 594.531C776.089 595.989 808.552 598.887 841.087 600.615C887.883 603.083 934.423 609.125 980.299 618.687C1042.07 631.584 1103.41 645.552 1165.26 658.233C1185.51 662.271 1206.02 664.921 1226.64 666.162C1252 667.809 1277.73 668.907 1303.07 667.629C1331.06 666.261 1358.87 662.229 1386.6 658.845C1404.41 656.676 1422.06 654.903 1440.07 657.045V700.065ZM547.372 658.359C547.372 658.818 547.3 659.259 547.273 659.736C554.653 660.276 562.051 660.636 569.395 661.41C598.78 664.416 628.138 667.575 657.532 670.59C714.232 676.359 770.302 684.09 825.49 695.07C881.02 706.086 936.262 717.903 991.99 728.262C1020.47 733.624 1049.21 737.529 1078.08 739.962C1109.49 742.527 1140.9 739.323 1172.07 735.255C1221.32 728.838 1267.81 716.535 1313.72 702.765C1314.57 702.453 1315.39 702.074 1316.18 701.631C1313.54 700.919 1310.81 700.616 1308.08 700.731C1288.94 700.569 1269.81 701.244 1250.8 700.038C1229 698.625 1207.3 695.934 1185.76 693.063C1140.63 687.042 1095.59 680.652 1050.59 674.163C1022.96 670.194 995.689 665.073 967.906 661.77C925.291 656.703 882.091 656.577 839.008 655.902C816.346 655.56 793.666 655.479 771.04 654.543C708.481 652.041 645.94 648.963 583.426 654.939C571.501 656.1 559.414 657.216 547.372 658.359Z" fill="#5555D8"/>
<path d="M0.101562 316.891C14.3306 320.428 28.6856 323.74 42.7706 327.547C91.9466 340.849 141.303 353.89 190.083 367.921C209.379 373.465 227.631 380.98 245.883 388.216C277.842 400.816 311.889 408.835 347.394 414.721C394.815 422.578 443.208 425.791 490.881 432.163C521.751 436.267 551.991 442.873 582.465 448.489C605.226 452.683 627.725 457.705 650.675 461.215C672.554 464.563 694.982 466.012 716.942 469.081C732.791 471.313 748.73 474.013 763.814 478.081C794.801 486.379 827.112 490.321 859.305 494.866C883.452 498.295 907.607 501.652 931.7 505.27C937.451 506.242 943.128 507.608 948.692 509.356C987.05 520.696 1025.83 531.388 1063.49 543.79C1090.05 552.547 1112.71 565.912 1132.67 581.383C1149.89 594.721 1171.44 603.406 1194.84 609.13C1233.34 618.535 1273.47 622.162 1314.06 621.73C1336.87 621.496 1359.64 619.579 1382.46 618.472C1386.06 618.292 1389.71 618.472 1393.34 618.472C1393.45 619.066 1393.59 619.66 1393.71 620.272C1383.27 621.946 1372.9 623.953 1362.38 625.24C1323.49 629.974 1284.29 631.054 1244.93 630.208C1196.93 629.173 1153.43 618.976 1115.26 597.808C1097.75 588.088 1077.27 582.508 1056.65 577.747C1030.85 571.861 1004.7 566.941 978.213 562.987C958.755 560.062 938.36 560.287 918.893 557.38C883.991 552.097 848.648 553.177 813.485 552.043C782.885 551.053 752.16 551.647 721.542 550.675C677.658 549.298 633.747 547.669 589.971 545.149C546.195 542.629 502.113 540.649 458.211 542.602C436.953 543.502 415.911 547.939 394.977 551.359C361.497 556.84 328.377 563.698 294.663 568.288C253.758 573.85 212.565 579.088 171.165 581.725C133.698 584.128 95.7446 584.893 58.0796 581.644C38.7026 579.916 19.4336 577.801 0.119562 575.857V486.982C5.62756 488.197 11.1176 489.466 16.6526 490.582C85.0526 505.054 152.553 522.406 224.4 526.861C253.281 528.661 282.243 529.336 310.8 525.745C350.166 520.795 389.613 516.745 429.492 514.522C482.745 511.498 535.467 514.432 588.279 519.022C618.645 521.722 649.191 524.701 679.674 524.836C712.2 524.98 744.725 521.911 777.242 520.255C785.432 519.841 793.631 519.463 801.821 519.076C800.059 517.797 798.062 516.88 795.945 516.376C769.071 508.15 740.856 503.434 712.245 499.465C671.745 493.867 631.406 487.819 589.925 486.649C545.511 485.407 501.555 480.961 457.743 475.669C424.048 471.612 390.029 470.966 356.205 473.743C328.584 476.011 300.792 476.533 273.117 473.815C220.359 468.649 170.292 456.805 121.863 441.352C83.3335 429.157 45.2456 416.152 6.95056 403.498C4.73656 402.868 2.45056 402.346 0.173562 401.914L0.101562 316.891Z" fill="#5555D8"/>
<path d="M1440.07 120.042C1399.49 111.402 1361.41 98.4423 1323.58 85.1403C1281.59 70.3623 1238.69 56.6373 1192.6 51.0573C1133.8 43.9563 1074.94 36.4053 1014.88 35.6133C963.722 34.9203 913.475 39.1143 863.426 46.4133C834.725 50.5983 805.466 53.2173 778.025 60.8673C746.246 69.7143 713.225 75.2673 680.24 80.8563C610.535 92.5563 540.821 104.256 470.918 115.362C425.873 122.562 380.351 128.007 334.118 129.384C306.218 130.212 278.12 131.445 250.373 129.96C227.873 128.745 205.319 124.668 183.413 120.258C137.423 111.006 92.6032 99.3423 49.9972 83.6283C33.4192 77.5173 16.6972 71.5953 0.0742188 65.6283V10.1523C9.16422 13.0773 18.1192 16.2453 27.3712 18.8823C63.2723 29.1989 99.8051 37.1747 136.739 42.7593C184.286 49.8783 232.085 56.4753 280.802 57.2223C324.056 57.9153 367.391 58.4193 410.627 57.4563C446.285 56.6733 481.898 54.0363 517.412 51.4263C551.144 48.9513 584.912 46.2873 618.32 42.1653C671.87 35.5593 725.033 27.4683 778.502 20.4213C820.856 14.8413 863.489 10.6113 906.752 11.3673C937.586 11.9073 968.429 12.9243 999.272 13.0953C1041.46 13.3383 1082.7 19.0713 1123.89 24.4083C1211.44 35.7663 1291.14 62.4243 1369 92.0073C1391.96 100.728 1415.8 107.235 1440.1 113.346L1440.07 120.042Z" fill="#5555D8"/>
<path d="M1440.08 858.681C1398.08 863.955 1355.67 864.081 1313.27 863.586C1285.74 863.28 1258.25 861.867 1230.74 861.606C1215.69 861.471 1200.62 862.911 1185.57 863.244C1163.56 863.721 1141.56 863.811 1119.55 864.144C1082.05 864.72 1044.52 866.097 1007.05 865.764C966.453 865.395 925.854 863.703 885.3 862.164C805.731 859.086 733.875 839.754 667.806 808.443C632.931 791.91 595.941 778.05 558.492 764.793C548.358 761.193 538.548 757.161 528.639 753.246C497.4 740.907 463.065 734.733 429.27 727.488C407.166 722.736 385.098 717.885 363.012 712.404C379.815 712.944 396.843 712.404 413.367 714.267C443.319 717.624 473.37 721.305 502.629 726.867C537.263 733.449 571.357 742.61 604.626 754.272C626.712 762.048 648.402 770.472 670.173 778.68C720.663 797.921 772.77 812.619 825.873 822.6C851.235 827.325 876.57 831.78 902.634 833.94C920.508 835.425 937.95 833.535 955.473 831.312C980.583 828.135 1005.98 826.056 1030.95 822.402C1083.31 814.752 1135.4 806.103 1187.77 798.453C1209.47 795.285 1231.7 793.953 1253.47 791.109C1265.38 789.543 1276.71 785.709 1288.63 784.188C1323.55 779.748 1358.56 775.698 1393.66 772.038C1408.96 770.418 1424.55 769.896 1440.01 768.87L1440.08 858.681Z" fill="#5555D8"/>
<path d="M1440.08 578.7C1426.52 578.367 1412.96 578.385 1399.46 577.638C1361.7 575.438 1323.82 578.075 1286.73 585.486C1257.15 591.435 1227.14 591.408 1198.73 582.057C1186.01 577.881 1172.9 572.571 1163.34 565.434C1128.17 539.064 1087.55 517.311 1049.41 493.434C1009.97 468.756 964.941 450.432 918.699 433.296C882.213 419.796 843.045 413.442 803.148 408.33C780.648 405.45 758.454 401.319 735.954 398.43C719.385 396.333 702.24 396.333 685.878 393.759C648.231 387.81 609.999 385.659 571.839 382.788L565.602 382.302V381.15C583.044 380.772 600.486 380.052 617.919 380.088C640.131 380.133 662.361 380.565 684.519 381.213C715.569 382.113 746.619 383.355 777.642 384.516C795.822 385.209 813.993 385.695 832.173 386.838C887.284 390.311 941.767 400.49 994.416 417.15C1009.54 421.902 1025.92 424.638 1041.74 428.22C1082.79 437.517 1121.38 450.774 1158.97 465.624C1185.07 475.911 1211.17 486.144 1236.93 496.773C1274.23 512.073 1314.75 520.677 1356.63 526.248C1384.3 529.911 1412.22 532.548 1440.05 535.689L1440.08 578.7Z" fill="#5555D8"/>
<path d="M0.104094 212.733C52.0341 223.848 103.352 235.512 148.982 257.877C210.533 288.045 272.651 317.619 338.108 343.503C372.2 357.003 408.398 363.303 446.207 366.777C465.764 368.577 485.276 370.647 504.815 372.627C505.823 372.726 506.723 373.149 507.74 374.625C503.339 374.85 498.92 375.309 494.528 375.219C466.151 374.544 437.738 374.202 409.397 372.834C395.321 372.15 381.308 369.918 367.484 367.704C330.026 361.674 294.782 351.504 260.546 339.039C233.501 329.139 205.646 320.31 177.863 311.526C169.673 308.934 160.475 307.845 151.592 306.522C122.522 302.175 93.2451 298.422 64.2921 293.706C42.6921 290.196 21.4161 285.606 -0.00390625 281.529L0.104094 212.733Z" fill="#5555D8"/>
<path d="M1440.08 363.708C1436.48 362.448 1433.09 360.882 1429.34 360C1395.41 352.017 1366.08 338.562 1339.5 321.75C1319.21 308.907 1297.12 297.702 1271.64 291.204C1251.3 286.02 1229.85 282.933 1208.71 279.504C1188.19 276.174 1167.43 273.582 1146.81 270.594C1145.22 270.36 1143.8 269.532 1141.41 268.641C1154.46 268.641 1166.28 268.704 1178.19 268.641C1190.62 268.56 1203 268.641 1215.37 268.101C1254.91 266.301 1294.57 266.04 1333.46 271.431C1367.31 276.12 1400.36 283.77 1433.77 290.079C1435.87 290.484 1438 290.763 1440.12 291.123L1440.08 363.708Z" fill="#5555D8"/>
</g>
</g>
<defs>
<clipPath id="clip0_3176_1630">
<rect width="1440" height="810" fill="white"/>
</clipPath>
</defs>
</svg>
